<?xml version="1.0" encoding="UTF-8" standalone="no"?>
<!-- Created with Inkscape (http://www.inkscape.org/) -->

<svg
   xmlns:dc="http://purl.org/dc/elements/1.1/"
   xmlns:cc="http://creativecommons.org/ns#"
   xmlns:rdf="http://www.w3.org/1999/02/22-rdf-syntax-ns#"
   xmlns:svg="http://www.w3.org/2000/svg"
   xmlns="http://www.w3.org/2000/svg"
   xmlns:sodipodi="http://sodipodi.sourceforge.net/DTD/sodipodi-0.dtd"
   xmlns:inkscape="http://www.inkscape.org/namespaces/inkscape"
   version="1.1"
   id="svg2"
   xml:space="preserve"
   width="1165.2231"
   height="571.19733"
   viewBox="0 0 1165.2231 571.19733"
   sodipodi:docname="simulador.svg"
   inkscape:version="0.92.2 2405546, 2018-03-11"><metadata
     id="metadata8"><rdf:RDF><cc:Work
         rdf:about=""><dc:format>image/svg+xml</dc:format><dc:type
           rdf:resource="http://purl.org/dc/dcmitype/StillImage" /><dc:title></dc:title></cc:Work></rdf:RDF></metadata><defs
     id="defs6" /><sodipodi:namedview
     pagecolor="#ffffff"
     bordercolor="#666666"
     borderopacity="1"
     objecttolerance="10"
     gridtolerance="10"
     guidetolerance="10"
     inkscape:pageopacity="0"
     inkscape:pageshadow="2"
     inkscape:window-width="824"
     inkscape:window-height="489"
     id="namedview4"
     showgrid="false"
     inkscape:zoom="2.3372266"
     inkscape:cx="804.26906"
     inkscape:cy="301.43692"
     inkscape:window-x="0"
     inkscape:window-y="0"
     inkscape:window-maximized="0"
     inkscape:current-layer="g10" /><g
     id="g10"
     inkscape:groupmode="layer"
     inkscape:label="simulador"
     transform="matrix(1.3333333,0,0,1.3333333,0,1.7613267e-5)"><g
       id="g12"><g
         id="g14"><path
           d="m 737.961,178.992 h 38.469 v 38.469 h -38.469 z"
           style="fill:#ffffff;fill-opacity:1;fill-rule:nonzero;stroke:#000000;stroke-width:1.5;stroke-linecap:butt;stroke-linejoin:miter;stroke-miterlimit:4;stroke-dasharray:none;stroke-opacity:1"
           id="path16"
           inkscape:connector-curvature="0" /></g><path
         d="m 856.309,221.648 h -22.875 c -0.45,0 -0.75,0.297 -0.75,0.75 v 45.825 c 0,0.449 0.3,0.75 0.75,0.75 h 36.675 c 0.45,0 0.75,-0.301 0.75,-0.75 v -32.028 c 0,-0.222 -0.074,-0.375 -0.222,-0.523 l -13.801,-13.801 c -0.074,-0.148 -0.301,-0.223 -0.527,-0.223 z m 0.75,2.625 c -998.176,307.707 -499.086,153.852 0,0 z m -22.95,43.274 v -44.324 h 21.45 c 2.714,2.211 13.879,13.847 13.726,13.089 v 31.309 z"
         style="fill:#ffffff;fill-opacity:1;fill-rule:nonzero;stroke:none"
         id="path18"
         inkscape:connector-curvature="0" /><g
         id="g20"><path
           d="m 94.07,56.352 h 84.254 c 1.43,0 2.578,1.113 2.578,2.5 v 81.664 c 0,1.382 -1.148,2.5 -2.578,2.5 H 94.07 c -1.425,0 -2.578,-1.118 -2.578,-2.5 V 58.852 c 0,-1.387 1.153,-2.5 2.578,-2.5 z"
           style="fill:#ffffff;fill-opacity:1;fill-rule:nonzero;stroke:#000000;stroke-width:0.75118101;stroke-linecap:butt;stroke-linejoin:miter;stroke-miterlimit:4;stroke-dasharray:none;stroke-opacity:1"
           id="path22"
           inkscape:connector-curvature="0" /></g><text
         transform="translate(116.83024,107.69101)"
         style="font-variant:normal;font-weight:normal;font-size:22px;font-family:'Bitstream Vera Sans';-inkscape-font-specification:BitstreamVeraSans-Roman;writing-mode:lr-tb;fill:#000000;fill-opacity:1;fill-rule:nonzero;stroke:none"
         id="text26"><tspan
           x="0 17.028 33.110001"
           y="0"
           sodipodi:role="line"
           id="tspan24">GUI</tspan></text>
<g
         id="g28"
         transform="scale(1,-1)"><path
           d="M 329.344,-83.664 H 529.551"
           style="fill:none;stroke:#000000;stroke-width:0.75;stroke-linecap:butt;stroke-linejoin:miter;stroke-miterlimit:4;stroke-dasharray:none;stroke-opacity:1"
           id="path30"
           inkscape:connector-curvature="0" /></g><g
         id="g32"
         transform="scale(-1,1)"><path
           d="m -526.551,83.664 1.5,-1.5 -5.25,1.5 5.25,1.5 z"
           style="fill:#000000;fill-opacity:1;fill-rule:evenodd;stroke:#000000;stroke-width:0.40000001;stroke-linecap:butt;stroke-linejoin:miter;stroke-miterlimit:4;stroke-dasharray:none;stroke-opacity:1"
           id="path34"
           inkscape:connector-curvature="0" /></g><text
         transform="translate(373.9642,77.866003)"
         style="font-variant:normal;font-weight:normal;font-size:9px;font-family:'Bitstream Vera Sans';-inkscape-font-specification:BitstreamVeraSans-Roman;writing-mode:lr-tb;fill:#000000;fill-opacity:1;fill-rule:nonzero;stroke:none"
         id="text38"><tspan
           x="0 5.8860002 12.042 19.799999 22.653 28.377001 33.884998 38.826"
           y="0"
           sodipodi:role="line"
           id="tspan36">RAM.hack</tspan></text>
<g
         id="g40"><path
           d="m 534.527,67.102 h 84.254 c 1.43,0 2.578,0.414 2.578,0.925 V 98.27 c 0,0.511 -1.148,0.925 -2.578,0.925 h -84.254 c -1.425,0 -2.578,-0.414 -2.578,-0.925 V 68.027 c 0,-0.511 1.153,-0.925 2.578,-0.925 z"
           style="fill:#ffffff;fill-opacity:1;fill-rule:nonzero;stroke:#000000;stroke-width:0.75118101;stroke-linecap:butt;stroke-linejoin:miter;stroke-miterlimit:4;stroke-dasharray:none;stroke-opacity:1"
           id="path42"
           inkscape:connector-curvature="0" /></g><text
         transform="translate(551.93422,86.273795)"
         style="font-variant:normal;font-weight:normal;font-size:12px;font-family:'Bitstream Vera Sans';-inkscape-font-specification:BitstreamVeraSans-Roman;writing-mode:lr-tb;fill:#000000;fill-opacity:1;fill-rule:nonzero;stroke:none"
         id="text46"><tspan
           x="0 4.704 12.036 22.379999 25.908001 30.9 34.703999 42.312"
           y="0"
           sodipodi:role="line"
           id="tspan44">toMIF.py</tspan></text>
<g
         id="g48"
         transform="scale(1,-1)"><path
           d="M 329.5,-129.176 H 451.234"
           style="fill:none;stroke:#000000;stroke-width:0.75;stroke-linecap:butt;stroke-linejoin:miter;stroke-miterlimit:4;stroke-dasharray:none;stroke-opacity:1"
           id="path50"
           inkscape:connector-curvature="0" /></g><g
         id="g52"
         transform="scale(-1,1)"><path
           d="m -448.234,129.176 1.5,-1.5 -5.25,1.5 5.25,1.5 z"
           style="fill:#000000;fill-opacity:1;fill-rule:evenodd;stroke:#000000;stroke-width:0.40000001;stroke-linecap:butt;stroke-linejoin:miter;stroke-miterlimit:4;stroke-dasharray:none;stroke-opacity:1"
           id="path54"
           inkscape:connector-curvature="0" /></g><text
         transform="translate(373.9642,121.8776)"
         style="font-variant:normal;font-weight:normal;font-size:9px;font-family:'Bitstream Vera Sans';-inkscape-font-specification:BitstreamVeraSans-Roman;writing-mode:lr-tb;fill:#000000;fill-opacity:1;fill-rule:nonzero;stroke:none"
         id="text58"><tspan
           x="0 6.2459998 13.329 21.087 23.940001 29.636999 35.172001 40.112999"
           y="0"
           sodipodi:role="line"
           id="tspan56">ROM.hack</tspan></text>
<g
         id="g60"><path
           d="m 455.664,112.613 h 84.254 c 1.43,0 2.578,0.414 2.578,0.926 v 30.242 c 0,0.512 -1.148,0.922 -2.578,0.922 h -84.254 c -1.426,0 -2.578,-0.41 -2.578,-0.922 v -30.242 c 0,-0.512 1.152,-0.926 2.578,-0.926 z"
           style="fill:#ffffff;fill-opacity:1;fill-rule:nonzero;stroke:#000000;stroke-width:0.75118101;stroke-linecap:butt;stroke-linejoin:miter;stroke-miterlimit:4;stroke-dasharray:none;stroke-opacity:1"
           id="path62"
           inkscape:connector-curvature="0" /></g><text
         transform="translate(473.07134,131.78539)"
         style="font-variant:normal;font-weight:normal;font-size:12px;font-family:'Bitstream Vera Sans';-inkscape-font-specification:BitstreamVeraSans-Roman;writing-mode:lr-tb;fill:#000000;fill-opacity:1;fill-rule:nonzero;stroke:none"
         id="text66"><tspan
           x="0 4.704 12.036 22.379999 25.908001 30.9 34.703999 42.312"
           y="0"
           sodipodi:role="line"
           id="tspan64">toMIF.py</tspan></text>
<g
         id="g68"
         transform="scale(1,-1)"><path
           d="m 494.297,-144.895 v -54.363"
           style="fill:none;stroke:#000000;stroke-width:0.75;stroke-linecap:butt;stroke-linejoin:miter;stroke-miterlimit:4;stroke-dasharray:none;stroke-opacity:1"
           id="path70"
           inkscape:connector-curvature="0" /></g><g
         id="g72"
         transform="matrix(0,-1,-1,0,0,0)"><path
           d="m -196.258,-494.297 1.5,-1.5 -5.25,1.5 5.25,1.5 z"
           style="fill:#000000;fill-opacity:1;fill-rule:evenodd;stroke:#000000;stroke-width:0.40000001;stroke-linecap:butt;stroke-linejoin:miter;stroke-miterlimit:4;stroke-dasharray:none;stroke-opacity:1"
           id="path74"
           inkscape:connector-curvature="0" /></g><g
         id="g76"
         transform="scale(1,-1)"><path
           d="M 576.656,-99.742 V -198.73"
           style="fill:none;stroke:#000000;stroke-width:0.75;stroke-linecap:butt;stroke-linejoin:miter;stroke-miterlimit:4;stroke-dasharray:none;stroke-opacity:1"
           id="path78"
           inkscape:connector-curvature="0" /></g><g
         id="g80"
         transform="matrix(0,-1,-1,0,0,0)"><path
           d="m -195.73,-576.656 1.5,-1.5 -5.25,1.5 5.25,1.5 z"
           style="fill:#000000;fill-opacity:1;fill-rule:evenodd;stroke:#000000;stroke-width:0.40000001;stroke-linecap:butt;stroke-linejoin:miter;stroke-miterlimit:4;stroke-dasharray:none;stroke-opacity:1"
           id="path82"
           inkscape:connector-curvature="0" /></g><g
         id="g84"><path
           d="m 474.938,201.898 h 121.074 c 2.054,0 3.707,0.414 3.707,0.926 v 30.242 c 0,0.512 -1.653,0.926 -3.707,0.926 H 474.938 c -2.051,0 -3.704,-0.414 -3.704,-0.926 v -30.242 c 0,-0.512 1.653,-0.926 3.704,-0.926 z"
           style="fill:#ffffff;fill-opacity:1;fill-rule:nonzero;stroke:#000000;stroke-width:0.75118101;stroke-linecap:butt;stroke-linejoin:miter;stroke-miterlimit:4;stroke-dasharray:none;stroke-opacity:1"
           id="path86"
           inkscape:connector-curvature="0" /></g><text
         transform="translate(488.00875,221.25569)"
         style="font-variant:normal;font-weight:normal;font-size:12px;font-family:'Bitstream Vera Sans';-inkscape-font-specification:BitstreamVeraSans-Roman;writing-mode:lr-tb;fill:#000000;fill-opacity:1;fill-rule:nonzero;stroke:none"
         id="text90"><tspan
           x="0 6.2399998 9.5640001 21.252001 28.848 32.172001 39.515999 44.220001 51.599998 60.012001 67.248001 76.019997 79.823997 87.431999"
           y="0"
           sodipodi:role="line"
           id="tspan88">simulateCPU.py</tspan></text>
<g
         id="g92"
         transform="scale(1,-1)"><path
           d="m 495.023,-234.367 v -57.274"
           style="fill:none;stroke:#000000;stroke-width:0.75;stroke-linecap:butt;stroke-linejoin:miter;stroke-miterlimit:4;stroke-dasharray:none;stroke-opacity:1"
           id="path94"
           inkscape:connector-curvature="0" /></g><g
         id="g96"
         transform="matrix(0,-1,-1,0,0,0)"><path
           d="m -288.641,-495.023 1.5,-1.5 -5.25,1.5 5.25,1.5 z"
           style="fill:#000000;fill-opacity:1;fill-rule:evenodd;stroke:#000000;stroke-width:0.40000001;stroke-linecap:butt;stroke-linejoin:miter;stroke-miterlimit:4;stroke-dasharray:none;stroke-opacity:1"
           id="path98"
           inkscape:connector-curvature="0" /></g><g
         id="g100"
         transform="scale(1,-1)"><path
           d="m 532.641,-234.367 v -78.094"
           style="fill:none;stroke:#000000;stroke-width:0.75;stroke-linecap:butt;stroke-linejoin:miter;stroke-miterlimit:4;stroke-dasharray:none;stroke-opacity:1"
           id="path102"
           inkscape:connector-curvature="0" /></g><g
         id="g104"
         transform="matrix(0,-1,-1,0,0,0)"><path
           d="m -309.461,-532.641 1.5,-1.5 -5.25,1.5 5.25,1.5 z"
           style="fill:#000000;fill-opacity:1;fill-rule:evenodd;stroke:#000000;stroke-width:0.40000001;stroke-linecap:butt;stroke-linejoin:miter;stroke-miterlimit:4;stroke-dasharray:none;stroke-opacity:1"
           id="path106"
           inkscape:connector-curvature="0" /></g><g
         id="g108"
         transform="scale(1,-1)"><path
           d="m 570.258,-234.367 v -89.688"
           style="fill:none;stroke:#000000;stroke-width:0.75;stroke-linecap:butt;stroke-linejoin:miter;stroke-miterlimit:4;stroke-dasharray:none;stroke-opacity:1"
           id="path110"
           inkscape:connector-curvature="0" /></g><g
         id="g112"
         transform="matrix(0,-1,-1,0,0,0)"><path
           d="m -321.055,-570.258 1.5,-1.5 -5.25,1.5 5.25,1.5 z"
           style="fill:#000000;fill-opacity:1;fill-rule:evenodd;stroke:#000000;stroke-width:0.40000001;stroke-linecap:butt;stroke-linejoin:miter;stroke-miterlimit:4;stroke-dasharray:none;stroke-opacity:1"
           id="path114"
           inkscape:connector-curvature="0" /></g><text
         transform="translate(471.5289,304.21246)"
         style="font-variant:normal;font-weight:normal;font-size:9.22000027px;font-family:'Bitstream Vera Sans';-inkscape-font-specification:BitstreamVeraSans-Roman;writing-mode:lr-tb;fill:#000000;fill-opacity:1;fill-rule:nonzero;stroke:none"
         id="text122"><tspan
           x="0 6.02988 12.33636 20.284 23.206739 32.187019 37.857319"
           y="0"
           sodipodi:role="line"
           id="tspan116">RAM.mem</tspan><tspan
           x="36.95105 43.349728 50.605869 58.553509 61.47625 70.456528 76.126831"
           y="19.081196"
           sodipodi:role="line"
           id="tspan118">ROM.mem</tspan><tspan
           x="83.313599 89.159081 91.869759 99.817398 102.74014 105.29408 110.08848"
           y="33.824482"
           sodipodi:role="line"
           id="tspan120">SIM.lst</tspan></text>
<g
         id="g124"
         transform="scale(1,-1)"><path
           d="m 30.664,-78.367 c 12.359,18.687 51.367,10.429 68.199,0.484"
           style="fill:none;stroke:#000000;stroke-width:0.75;stroke-linecap:butt;stroke-linejoin:miter;stroke-miterlimit:4;stroke-dasharray:none;stroke-opacity:1"
           id="path126"
           inkscape:connector-curvature="0" /></g><g
         id="g128"
         transform="matrix(-1,-0.59091,-0.59091,1,0,0)"><path
           d="m -104.807,14.428 1.294,-1.29 -4.52,1.29 4.518,1.291 z"
           style="fill:#000000;fill-opacity:1;fill-rule:evenodd;stroke:#000000;stroke-width:0.34437001;stroke-linecap:butt;stroke-linejoin:miter;stroke-miterlimit:4;stroke-dasharray:none;stroke-opacity:1"
           id="path130"
           inkscape:connector-curvature="0" /></g><text
         transform="translate(-0.837363,89.290316)"
         style="font-variant:normal;font-weight:normal;font-size:9.22000027px;font-family:'Bitstream Vera Sans';-inkscape-font-specification:BitstreamVeraSans-Roman;writing-mode:lr-tb;fill:#000000;fill-opacity:1;fill-rule:nonzero;stroke:none"
         id="text134"><tspan
           x="0 5.84548 9.4504995 15.08392 20.929399 24.718821 30.36146 39.3694 42.292141 48.128399 53.771042 58.860481"
           y="0"
           sodipodi:role="line"
           id="tspan132">program.hack</tspan></text>
<g
         id="g136"
         transform="scale(1,-1)"><path
           d="m 101.18,-79.254 c 3.672,-2.238 13.797,-5.68 18.312,-9.066 7.625,-5.719 10.371,-14.739 16.988,-21.356 10.895,-10.894 30.555,-11.984 43.79,-11.984"
           style="fill:none;stroke:#000000;stroke-width:0.75;stroke-linecap:butt;stroke-linejoin:miter;stroke-miterlimit:4;stroke-dasharray:3, 3;stroke-dashoffset:0;stroke-opacity:1"
           id="path138"
           inkscape:connector-curvature="0" /></g><g
         id="g140"
         transform="scale(1,-1)"><path
           d="m 77.859,-11.832 c 4.332,-29.566 19.473,-38.707 42.957,-54.363"
           style="fill:none;stroke:#000000;stroke-width:0.75;stroke-linecap:butt;stroke-linejoin:miter;stroke-miterlimit:4;stroke-dasharray:none;stroke-opacity:1"
           id="path142"
           inkscape:connector-curvature="0" /></g><g
         id="g144"
         transform="matrix(-1,-0.666668,-0.666668,1,0,0)"><path
           d="m -111.698,-9.934 1.246,-1.248 -4.367,1.249 4.367,1.248 z"
           style="fill:#000000;fill-opacity:1;fill-rule:evenodd;stroke:#000000;stroke-width:0.33282;stroke-linecap:butt;stroke-linejoin:miter;stroke-miterlimit:4;stroke-dasharray:none;stroke-opacity:1"
           id="path146"
           inkscape:connector-curvature="0" /></g><text
         transform="translate(30.581948,7.005039)"
         style="font-variant:normal;font-weight:normal;font-size:9.22000027px;font-family:'Bitstream Vera Sans';-inkscape-font-specification:BitstreamVeraSans-Roman;writing-mode:lr-tb;fill:#000000;fill-opacity:1;fill-rule:nonzero;stroke:none"
         id="text150"><tspan
           x="0 5.6703 11.51578 14.06972 17.68396 23.326599 29.172079 31.726021 37.39632 40.319061 43.9333 49.575939 55.421421 57.975361 63.64566 66.568398 70.1642 76.212517 82.518997 90.466637"
           y="0"
           sodipodi:role="line"
           id="tspan148">editable table (RAM)</tspan></text>
<g
         id="g152"
         transform="scale(1,-1)"><path
           d="m 123.164,-67.418 c 2.719,-1.102 23.402,-8.766 36.859,-8.766 5.278,0 15.918,1.696 20.129,-0.109"
           style="fill:none;stroke:#000000;stroke-width:0.75;stroke-linecap:butt;stroke-linejoin:miter;stroke-miterlimit:4;stroke-dasharray:2.25, 2.25;stroke-dashoffset:0;stroke-opacity:1"
           id="path154"
           inkscape:connector-curvature="0" /></g><path
         d="m 653.02,240.102 c -0.008,-0.403 0.332,-0.614 0.539,-0.727 l 3.632,-1.055 c 0.25,-0.793 0.582,-1.55 0.961,-2.273 l -1.851,-3.328 c -0.149,-0.281 -0.09,-0.664 0.14,-0.891 l 3.235,-3.258 c 0.234,-0.234 0.629,-0.285 0.914,-0.117 l 3.328,1.852 c 0.727,-0.379 1.477,-0.711 2.273,-0.961 l 1.032,-3.656 c 0.093,-0.309 0.402,-0.54 0.726,-0.54 h 4.617 c 0.325,0 0.637,0.231 0.727,0.54 l 1.055,3.679 c 0.785,0.25 1.535,0.563 2.25,0.938 l 3.351,-1.852 c 0.281,-0.156 0.66,-0.105 0.891,0.117 l 3.258,3.258 c 0.226,0.231 0.273,0.613 0.117,0.891 l -1.852,3.328 c 0.379,0.723 0.692,1.484 0.938,2.273 l 3.656,1.055 c 0.32,0.086 0.563,0.398 0.563,0.727 v 4.593 c 0,0.332 -0.243,0.645 -0.563,0.727 l -3.656,1.055 c -0.246,0.793 -0.559,1.554 -0.938,2.273 l 1.852,3.328 c 0.156,0.281 0.109,0.664 -0.117,0.891 l -3.258,3.258 c -0.231,0.226 -0.61,0.277 -0.891,0.117 l -3.351,-1.852 c -0.715,0.379 -1.465,0.692 -2.25,0.938 l -1.055,3.679 c -0.09,0.313 -0.402,0.543 -0.727,0.539 h -4.617 c -0.324,0 -0.633,-0.226 -0.726,-0.539 l -1.032,-3.656 c -0.796,-0.246 -1.546,-0.578 -2.273,-0.961 l -3.328,1.852 c -0.285,0.172 -0.68,0.121 -0.914,-0.117 l -3.235,-3.258 c -0.23,-0.223 -0.289,-0.606 -0.14,-0.891 l 1.851,-3.328 c -0.379,-0.723 -0.711,-1.477 -0.961,-2.273 l -3.632,-1.055 c -0.309,-0.09 -0.539,-0.402 -0.539,-0.727 z m 1.5,0.539 v 3.515 l 3.445,0.961 c 0.25,0.074 0.453,0.289 0.515,0.539 0.27,0.981 0.68,1.899 1.172,2.766 0.125,0.223 0.125,0.508 0,0.726 l -1.757,3.164 2.46,2.461 3.141,-1.757 c 0.227,-0.129 0.524,-0.129 0.75,0 0.867,0.496 1.789,0.879 2.766,1.148 0.246,0.07 0.445,0.274 0.515,0.516 l 0.985,3.468 h 3.492 l 0.984,-3.468 c 0.071,-0.242 0.274,-0.446 0.516,-0.516 0.98,-0.269 1.922,-0.652 2.789,-1.148 0.223,-0.121 0.508,-0.121 0.727,0 l 3.164,1.734 2.437,-2.438 -1.758,-3.164 c -0.113,-0.222 -0.105,-0.507 0.024,-0.726 0.496,-0.867 0.879,-1.785 1.148,-2.766 0.063,-0.25 0.266,-0.465 0.516,-0.539 l 3.469,-0.984 v -3.469 l -3.469,-0.984 c -0.25,-0.071 -0.453,-0.285 -0.516,-0.539 -0.269,-0.977 -0.652,-1.895 -1.148,-2.766 -0.129,-0.215 -0.137,-0.5 -0.024,-0.727 l 1.758,-3.164 -2.437,-2.437 -3.164,1.734 c -0.219,0.125 -0.504,0.125 -0.727,0 -0.867,-0.492 -1.809,-0.879 -2.789,-1.148 -0.242,-0.067 -0.445,-0.27 -0.516,-0.516 l -0.984,-3.469 h -3.492 l -0.985,3.469 c -0.07,0.246 -0.269,0.449 -0.515,0.516 -0.977,0.269 -1.899,0.656 -2.766,1.148 -0.226,0.133 -0.523,0.133 -0.75,0 l -3.141,-1.758 -2.46,2.461 1.757,3.164 c 0.125,0.223 0.125,0.508 0,0.727 -0.492,0.871 -0.902,1.789 -1.172,2.766 -0.062,0.254 -0.265,0.468 -0.515,0.539 z m 9.75,1.757 c 0,-3.304 2.695,-6 6,-6 3.304,0 6,2.696 6,6 0,3.305 -2.696,6 -6,6 -3.305,0 -6,-2.695 -6,-6 z m 1.5,0 c 0,2.497 2.007,4.5 4.5,4.5 2.496,0 4.5,-2.003 4.5,-4.5 0,-2.492 -2.004,-4.5 -4.5,-4.5 -2.493,0 -4.5,2.008 -4.5,4.5 z m 14.25,-32.718 c -0.008,-0.41 0.312,-0.633 0.539,-0.727 l 4.406,-1.265 c 0.305,-0.973 0.68,-1.907 1.148,-2.79 l -2.226,-4.007 c -0.149,-0.282 -0.09,-0.664 0.14,-0.891 l 3.844,-3.844 c 0.231,-0.222 0.613,-0.273 0.891,-0.117 l 3.984,2.203 c 0.891,-0.472 1.832,-0.867 2.813,-1.172 l 1.242,-4.382 c 0.094,-0.309 0.402,-0.54 0.726,-0.54 h 5.461 c 0.324,0 0.637,0.231 0.727,0.54 l 1.242,4.382 c 0.988,0.305 1.922,0.719 2.813,1.196 l 3.984,-2.227 c 0.285,-0.168 0.684,-0.117 0.914,0.117 l 3.844,3.844 c 0.226,0.23 0.273,0.613 0.117,0.891 l -2.227,4.007 c 0.473,0.887 0.871,1.817 1.172,2.79 l 4.383,1.265 c 0.32,0.086 0.563,0.399 0.563,0.727 v 5.437 c 0,0.332 -0.243,0.645 -0.563,0.727 l -4.383,1.265 c -0.301,0.977 -0.699,1.907 -1.172,2.789 l 2.227,4.008 c 0.156,0.282 0.109,0.664 -0.117,0.891 l -3.844,3.844 c -0.23,0.234 -0.629,0.289 -0.914,0.117 l -3.984,-2.227 c -0.891,0.477 -1.825,0.895 -2.813,1.196 l -1.242,4.382 c -0.09,0.313 -0.403,0.543 -0.727,0.539 h -5.461 c -0.324,0 -0.632,-0.226 -0.726,-0.539 l -1.242,-4.382 c -0.981,-0.301 -1.922,-0.696 -2.813,-1.172 l -3.984,2.203 c -0.278,0.16 -0.66,0.109 -0.891,-0.117 l -3.844,-3.844 c -0.23,-0.223 -0.289,-0.606 -0.14,-0.891 l 2.226,-4.008 c -0.468,-0.882 -0.843,-1.812 -1.148,-2.789 l -4.406,-1.265 c -0.309,-0.09 -0.539,-0.403 -0.539,-0.727 z m 1.5,0.539 v 4.359 l 4.171,1.172 c 0.247,0.07 0.446,0.273 0.516,0.516 0.324,1.172 0.793,2.293 1.383,3.328 0.125,0.222 0.125,0.508 0,0.726 l -2.11,3.821 3.047,3.047 3.821,-2.133 c 0.222,-0.121 0.507,-0.121 0.726,0 1.035,0.59 2.137,1.062 3.305,1.383 0.246,0.07 0.445,0.273 0.516,0.515 l 1.195,4.195 h 4.336 l 1.195,-4.195 c 0.07,-0.242 0.274,-0.445 0.516,-0.515 1.168,-0.321 2.269,-0.793 3.304,-1.383 0.227,-0.129 0.524,-0.129 0.75,0 l 3.821,2.109 3.023,-3.023 -2.109,-3.821 c -0.121,-0.218 -0.121,-0.504 0,-0.726 0.59,-1.035 1.062,-2.156 1.383,-3.328 0.07,-0.243 0.273,-0.446 0.515,-0.516 l 4.196,-1.195 v -4.313 l -4.196,-1.195 c -0.242,-0.067 -0.445,-0.27 -0.515,-0.516 -0.321,-1.168 -0.793,-2.293 -1.383,-3.328 -0.121,-0.219 -0.121,-0.504 0,-0.726 l 2.109,-3.821 -3.023,-3.023 -3.821,2.109 c -0.226,0.133 -0.523,0.133 -0.75,0 -1.035,-0.586 -2.136,-1.058 -3.304,-1.383 -0.242,-0.066 -0.446,-0.269 -0.516,-0.515 l -1.195,-4.196 h -4.336 l -1.195,4.196 c -0.071,0.246 -0.27,0.449 -0.516,0.515 -1.168,0.325 -2.27,0.797 -3.305,1.383 -0.219,0.125 -0.504,0.125 -0.726,0 l -3.821,-2.133 -3.047,3.047 2.11,3.821 c 0.125,0.222 0.125,0.507 0,0.726 -0.59,1.035 -1.059,2.16 -1.383,3.328 -0.07,0.246 -0.269,0.449 -0.516,0.516 z m 11.25,2.179 c 0,-4.132 3.367,-7.5 7.5,-7.5 4.132,0 7.5,3.368 7.5,7.5 0,4.137 -3.368,7.5 -7.5,7.5 -4.133,0 -7.5,-3.363 -7.5,-7.5 z m 1.5,0 c 0,3.325 2.679,6 6,6 3.324,0 6,-2.675 6,-6 0,-3.32 -2.676,-6 -6,-6 -3.321,0 -6,2.68 -6,6 z"
         style="fill:#000000;fill-opacity:1;fill-rule:nonzero;stroke:none"
         id="path156"
         inkscape:connector-curvature="0" /><g
         id="g158"
         transform="scale(1,-1)"><path
           d="m 601.266,-209.844 h 48.39"
           style="fill:none;stroke:#000000;stroke-width:0.75;stroke-linecap:butt;stroke-linejoin:miter;stroke-miterlimit:4;stroke-dasharray:none;stroke-opacity:1"
           id="path160"
           inkscape:connector-curvature="0" /></g><g
         id="g162"
         transform="scale(-1,1)"><path
           d="m -646.656,209.844 1.5,-1.5 -5.25,1.5 5.25,1.5 z"
           style="fill:#000000;fill-opacity:1;fill-rule:evenodd;stroke:#000000;stroke-width:0.40000001;stroke-linecap:butt;stroke-linejoin:miter;stroke-miterlimit:4;stroke-dasharray:none;stroke-opacity:1"
           id="path164"
           inkscape:connector-curvature="0" /></g><g
         id="g166"
         transform="scale(1,-1)"><path
           d="M 651.137,-226.047 H 602.742"
           style="fill:none;stroke:#000000;stroke-width:0.75;stroke-linecap:butt;stroke-linejoin:miter;stroke-miterlimit:4;stroke-dasharray:none;stroke-opacity:1"
           id="path168"
           inkscape:connector-curvature="0" /></g><g
         id="g170"
         transform="scale(1,-1)"><path
           d="m 605.742,-226.047 1.5,-1.5 -5.25,1.5 5.25,1.5 z"
           style="fill:#000000;fill-opacity:1;fill-rule:evenodd;stroke:#000000;stroke-width:0.40000001;stroke-linecap:butt;stroke-linejoin:miter;stroke-miterlimit:4;stroke-dasharray:none;stroke-opacity:1"
           id="path172"
           inkscape:connector-curvature="0" /></g><text
         transform="translate(692.81576,253.01648)"
         style="font-variant:normal;font-weight:normal;font-size:9.22000027px;font-family:'Bitstream Vera Sans';-inkscape-font-specification:BitstreamVeraSans-Roman;writing-mode:lr-tb;fill:#000000;fill-opacity:1;fill-rule:nonzero;stroke:none"
         id="text176"><tspan
           x="0 8.9802799 14.6137 20.459181 26.12948 28.68342 33.477821 36.031761"
           y="0"
           sodipodi:role="line"
           id="tspan174">modelsim</tspan></text>
<path
         d="m 756.148,161.48 h -22.875 c -0.449,0 -0.75,0.301 -0.75,0.75 v 45.825 c 0,0.449 0.301,0.75 0.75,0.75 h 36.676 c 0.449,0 0.75,-0.301 0.75,-0.75 v -32.024 c 0,-0.226 -0.078,-0.375 -0.226,-0.527 l -13.801,-13.797 c -0.074,-0.152 -0.301,-0.227 -0.524,-0.227 z m 0.75,2.625 11.176,11.176 h -11.176 z m -22.949,43.274 v -44.324 h 21.449 v 13.05 c 0,0.45 0.301,0.75 0.75,0.75 h 12.973 v 30.602 z"
         style="fill:#000000;fill-opacity:1;fill-rule:nonzero;stroke:none"
         id="path178"
         inkscape:connector-curvature="0" /><path
         d="m 741.672,188.254 h 19.801 v 1.5 h -19.801 z"
         style="fill:#000000;fill-opacity:1;fill-rule:nonzero;stroke:none"
         id="path180"
         inkscape:connector-curvature="0" /><path
         d="m 741.672,196.656 h 12.977 v 1.5 h -12.977 z"
         style="fill:#000000;fill-opacity:1;fill-rule:nonzero;stroke:none"
         id="path182"
         inkscape:connector-curvature="0" /><path
         d="m 750.832,207.363 -16.773,-0.031 v -44.168 h 21.226 l 0.035,6.656 c 0.028,5.426 0.067,6.692 0.2,6.856 0.152,0.183 0.781,0.199 6.828,0.199 h 6.656 v 30.582 l -0.695,-0.031 c -0.383,-0.016 -8.247,-0.043 -17.473,-0.063 z m 3.856,-9.98 v -0.852 l -13.047,0.063 -0.071,1.64 h 13.118 z m 6.792,-8.371 v -0.852 h -19.898 v 1.699 h 19.898 z"
         style="fill:#ffffff;fill-opacity:1;fill-rule:nonzero;stroke:none"
         id="path184"
         inkscape:connector-curvature="0" /><text
         transform="translate(783.70834,220.37207)"
         style="font-variant:normal;font-weight:normal;font-size:9.22000027px;font-family:'Bitstream Vera Sans';-inkscape-font-specification:BitstreamVeraSans-Roman;writing-mode:lr-tb;fill:#000000;fill-opacity:1;fill-rule:nonzero;stroke:none"
         id="text188"><tspan
           x="0 8.9802799 14.6137 20.459181 26.295441 28.84938 34.4828 39.277199 42.19994 45.795738 51.244759 57.08102 62.926498"
           y="0"
           sodipodi:role="line"
           id="tspan186">modulos (vhd)</tspan></text>
<text
         transform="translate(606.84774,189.61111)"
         style="font-variant:normal;font-weight:normal;font-size:7.99999905px;font-family:'Bitstream Vera Sans';-inkscape-font-specification:BitstreamVeraSans-Roman;writing-mode:lr-tb;fill:#000000;fill-opacity:1;fill-rule:nonzero;stroke:none"
         id="text194"><tspan
           x="0 3.1359997 10.927999 15.999998 21.239998 26.711996 33.607994 36.143997 43.935993 46.151993"
           y="0"
           sodipodi:role="line"
           id="tspan190">tmpRAM.mif</tspan><tspan
           x="0 3.1359997 10.927999 15.999998 21.551998 27.847996 34.743996 37.279995 45.095993 47.311993"
           y="11.524999"
           sodipodi:role="line"
           id="tspan192">tmpROM.mif</tspan></text>
<text
         transform="translate(543.51498,405.23471)"
         style="font-variant:normal;font-weight:normal;font-size:7.99999905px;font-family:'Bitstream Vera Sans Mono';-inkscape-font-specification:BitstreamVeraSansMono-Roman;writing-mode:lr-tb;fill:#000000;fill-opacity:1;fill-rule:nonzero;stroke:none"
         id="text202"><tspan
           x="0 4.8159995 9.631999 14.447998 19.263998 24.079996 28.871996 33.687996 38.503994 43.319996 48.135994 52.951992 57.743992 62.559994 67.375992 72.191994 77.007988 81.82399 86.61599 91.431992 96.247986 101.06399 105.87999 110.69598 115.48798 120.30399 125.11999 129.93599 134.75198 139.56798 144.35999 149.17598 153.99197 158.80798 163.62398 168.43997 173.23198 178.04797 182.86398 187.67998 192.49597 197.31198 202.10397"
           y="0"
           sodipodi:role="line"
           id="tspan196">RAM.mem : estado final da RAM pós simulaçào</tspan><tspan
           x="0 4.8159995 9.631999 14.447998 19.263998 24.079996 28.871996 33.687996 38.503994 43.319996 48.135994 52.951992 57.743992 62.559994 67.375992 72.191994 77.007988 81.82399 86.61599 91.431992 96.247986 101.06399 105.87999 110.69598 115.48798 120.30399 125.11999 129.93599 134.75198 139.56798 144.35999 149.17598 153.99197 158.80798 163.62398 168.43997 173.23198 178.04797 182.86398 187.67998 192.49597 197.31198 202.10397 206.91997 211.73598 216.55197 221.36797 226.18398 230.99997 235.79198 240.60797 245.42397 250.23997 255.05597 259.87198 264.66397 269.47998 274.29596 279.11197 283.92798 288.74396 293.53595 298.35196 303.16797 307.98395 312.79996 317.61597 322.40796 327.22397"
           y="11.524999"
           sodipodi:role="line"
           id="tspan198">ROM.mem : programa (só para verificar se o que entrou é = o que saiu)</tspan><tspan
           x="0 4.8159995 9.631999 14.447998 19.263998 24.079996 28.871996 33.687996 38.503994 43.319996 48.135994 52.951992 57.743992 62.559994 67.375992 72.191994 77.007988 81.82399 86.61599 91.431992 96.247986 101.06399 105.87999 110.69598 115.48798 120.30399 125.11999 129.93599 134.75198 139.56798 144.35999 149.17598 153.99197 158.80798 163.62398 168.43997 173.23198 178.04797 182.86398 187.67998 192.49597 197.31198 202.10397 206.91997 211.73598 216.55197 221.36797 226.18398 230.99997 235.79198 240.60797 245.42397 250.23997 255.05597 259.87198"
           y="23.049997"
           sodipodi:role="line"
           id="tspan200">SIM.lst : estado interno da CPU atualizado a cada clock</tspan></text>
<g
         id="g204"><path
           d="m 212.879,88.668 h 121.07 c 2.055,0 3.707,0.41 3.707,0.922 v 30.242 c 0,0.512 -1.652,0.926 -3.707,0.926 h -121.07 c -2.055,0 -3.707,-0.414 -3.707,-0.926 V 89.59 c 0,-0.512 1.652,-0.922 3.707,-0.922 z"
           style="fill:#ffffff;fill-opacity:1;fill-rule:nonzero;stroke:#000000;stroke-width:0.75118101;stroke-linecap:butt;stroke-linejoin:miter;stroke-miterlimit:4;stroke-dasharray:none;stroke-opacity:1"
           id="path206"
           inkscape:connector-curvature="0" /></g><text
         transform="translate(241.83792,109.18535)"
         style="font-variant:normal;font-weight:normal;font-size:12px;font-family:'Bitstream Vera Sans';-inkscape-font-specification:BitstreamVeraSans-Roman;writing-mode:lr-tb;fill:#000000;fill-opacity:1;fill-rule:nonzero;stroke:none"
         id="text210"><tspan
           x="0 8.2080002 14.448 20.688 28.068001 39.756001 47.363998 50.688 58.068001"
           y="0"
           sodipodi:role="line"
           id="tspan208">Assembler</tspan></text>
<g
         id="g212"
         transform="scale(1,-1)"><path
           d="m 329.5,-129.176 v 8.332"
           style="fill:none;stroke:#000000;stroke-width:0.75;stroke-linecap:butt;stroke-linejoin:miter;stroke-miterlimit:4;stroke-dasharray:none;stroke-opacity:1"
           id="path214"
           inkscape:connector-curvature="0" /></g><g
         id="g216"
         transform="scale(1,-1)"><path
           d="M 329.344,-83.664 V -88.41"
           style="fill:none;stroke:#000000;stroke-width:0.75;stroke-linecap:butt;stroke-linejoin:miter;stroke-miterlimit:4;stroke-dasharray:none;stroke-opacity:1"
           id="path218"
           inkscape:connector-curvature="0" /></g><g
         id="g220"
         transform="scale(1,-1)"><path
           d="m 181.422,-102.301 h 28.277"
           style="fill:none;stroke:#000000;stroke-width:0.75;stroke-linecap:butt;stroke-linejoin:miter;stroke-miterlimit:4;stroke-dasharray:none;stroke-opacity:1"
           id="path222"
           inkscape:connector-curvature="0" /></g><g
         id="g224"
         transform="scale(-1,1)"><path
           d="m -206.699,102.301 1.5,-1.5 -5.25,1.5 5.25,1.5 z"
           style="fill:#000000;fill-opacity:1;fill-rule:evenodd;stroke:#000000;stroke-width:0.40000001;stroke-linecap:butt;stroke-linejoin:miter;stroke-miterlimit:4;stroke-dasharray:none;stroke-opacity:1"
           id="path226"
           inkscape:connector-curvature="0" /></g><g
         id="g228"
         transform="scale(1,-1)"><path
           d="m 468.773,-289.66 c -27.425,-11.426 0.715,-32.278 18.688,-32.278 0.105,0 9.562,-14.437 15.531,-15.292 4.266,-0.61 9.028,-1.59 13.348,-0.727 0.472,0.094 5.371,-0.859 5.414,-0.945 8.273,-7.368 18.629,-13.731 27.105,-16.043 13.727,-3.743 27.793,3.062 37.133,0.726 24.613,-6.152 32.196,8.809 21.117,29.125"
           style="fill:none;stroke:#999999;stroke-width:0.75;stroke-linecap:butt;stroke-linejoin:miter;stroke-miterlimit:4;stroke-dasharray:none;stroke-opacity:1"
           id="path230"
           inkscape:connector-curvature="0" /></g><g
         id="g232"
         transform="scale(1,-1)"><path
           d="M 457.035,-300.004 194.988,-148.711"
           style="fill:none;stroke:#999999;stroke-width:0.75;stroke-linecap:butt;stroke-linejoin:miter;stroke-miterlimit:4;stroke-dasharray:none;stroke-opacity:1"
           id="path234"
           inkscape:connector-curvature="0" /></g><g
         id="g236"
         transform="matrix(1,0.57735,0.57735,-1,0,0)"><path
           d="m 213.236,-27.099 1.298,-1.302 -4.548,1.301 4.548,1.297 z"
           style="fill:#999999;fill-opacity:1;fill-rule:evenodd;stroke:#999999;stroke-width:0.34641001;stroke-linecap:butt;stroke-linejoin:miter;stroke-miterlimit:4;stroke-dasharray:none;stroke-opacity:1"
           id="path238"
           inkscape:connector-curvature="0" /></g></g></g></svg>