<?xml version="1.0" encoding="UTF-8" standalone="no"?>
<!-- Generator: Adobe Illustrator 19.0.0, SVG Export Plug-In . SVG Version: 6.00 Build 0)  -->

<svg
   xmlns:dc="http://purl.org/dc/elements/1.1/"
   xmlns:cc="http://creativecommons.org/ns#"
   xmlns:rdf="http://www.w3.org/1999/02/22-rdf-syntax-ns#"
   xmlns:svg="http://www.w3.org/2000/svg"
   xmlns="http://www.w3.org/2000/svg"
   xmlns:sodipodi="http://sodipodi.sourceforge.net/DTD/sodipodi-0.dtd"
   xmlns:inkscape="http://www.inkscape.org/namespaces/inkscape"
   version="1.1"
   id="Camada_1"
   x="0px"
   y="0px"
   viewBox="0 0 16.845982 16.784767"
   xml:space="preserve"
   sodipodi:docname="icon-elementos.svg"
   width="16.845982"
   height="16.784767"
   inkscape:version="0.92.3 (2405546, 2018-03-11)"><metadata
   id="metadata119"><rdf:RDF><cc:Work
       rdf:about=""><dc:format>image/svg+xml</dc:format><dc:type
         rdf:resource="http://purl.org/dc/dcmitype/StillImage" /><dc:title /></cc:Work></rdf:RDF></metadata><defs
   id="defs117">
	

		
		
		
		
		
		
		
		
		
		
		
		
		
		
		
		
		
		
		
		
		
		
		
		
		
		
		
	
			
			
		
			
			
		
			
			
		
			
			
		
			
			
		
			
			
		
			
			
		
			
			
		
			
		
			
		
			
		
			
			
		
			
		
			
		
			
		
			
		
			
		
			
		
			
		
			
		
			
		
			
		
			
		
			
		
			
		
			
			
		
			
			
		</defs><sodipodi:namedview
   pagecolor="#ffffff"
   bordercolor="#666666"
   borderopacity="1"
   objecttolerance="10"
   gridtolerance="10"
   guidetolerance="10"
   inkscape:pageopacity="0"
   inkscape:pageshadow="2"
   inkscape:window-width="2206"
   inkscape:window-height="999"
   id="namedview115"
   showgrid="false"
   fit-margin-top="0"
   fit-margin-left="0"
   fit-margin-right="0"
   fit-margin-bottom="0"
   inkscape:zoom="26.638448"
   inkscape:cx="0.61209635"
   inkscape:cy="4.6556162"
   inkscape:window-x="922"
   inkscape:window-y="203"
   inkscape:window-maximized="0"
   inkscape:current-layer="Camada_1" />
<style
   type="text/css"
   id="style2">
	.st0{fill:#FFFFFF;}
	.st1{fill:#010101;}
	.st2{fill:#29A5A2;}
	.st3{fill:#FFF8D2;}
	.st4{fill:#C42126;}
	.st5{fill:#FAA71C;}
</style>


<g
   id="g874"><g
     transform="matrix(0.10354575,0,0,0.10354575,-6.1118114,-5.5811159)"
     id="XMLID_325_"
     style="stroke-width:9.65756702">
				<rect
   id="XMLID_171_"
   x="84.400002"
   y="77"
   class="st0"
   width="114.8"
   height="114.8"
   style="fill:#ffffff;stroke-width:9.65756702" />
			</g><g
     transform="matrix(0.10354575,0,0,0.10354575,-6.1118114,-5.5811159)"
     id="XMLID_321_"
     style="stroke-width:9.65756702">
				<path
   id="XMLID_322_"
   class="st1"
   d="M 199.2,194 H 84.4 c -1.2,0 -2.2,-1 -2.2,-2.2 V 77 c 0,-1.2 1,-2.2 2.2,-2.2 h 114.8 c 1.2,0 2.2,1 2.2,2.2 v 114.8 c 0,1.2 -1,2.2 -2.2,2.2 z M 86.6,189.6 H 197 V 79.2 H 86.6 Z"
   inkscape:connector-curvature="0"
   style="fill:#010101;stroke-width:9.65756702" />
			</g><g
     transform="matrix(0.10354575,0,0,0.10354575,-6.1118114,-5.5811159)"
     id="XMLID_315_"
     style="stroke-width:9.65756702">
				<g
   id="XMLID_199_"
   style="stroke-width:9.65756702">
					<rect
   id="XMLID_200_"
   x="108.2"
   y="100.8"
   class="st2"
   width="67.300003"
   height="67.300003"
   style="fill:#29a5a2;stroke-width:9.65756702" />
				</g>
			</g><g
     transform="matrix(0.10354575,0,0,0.10354575,-6.1118114,-5.5811159)"
     id="XMLID_311_"
     style="stroke-width:9.65756702">
				<path
   id="XMLID_312_"
   class="st1"
   d="m 175.5,170.3 h -67.3 c -1.2,0 -2.2,-1 -2.2,-2.2 v -67.3 c 0,-1.2 1,-2.2 2.2,-2.2 h 67.3 c 1.2,0 2.2,1 2.2,2.2 v 67.3 c 0,1.2 -1,2.2 -2.2,2.2 z m -65.1,-4.4 h 62.9 v -63 h -62.9 z"
   inkscape:connector-curvature="0"
   style="fill:#010101;stroke-width:9.65756702" />
			</g><path
     id="XMLID_165_"
     class="st1"
     d="M 2.4928406,4.825232 H 0.4736983 c -0.1242549,0 -0.2278006,-0.1035458 -0.2278006,-0.2278007 V 1.1907762 c 0,-0.1242549 0.1035457,-0.2278007 0.2278006,-0.2278007 0.1242549,0 0.2278006,0.1035458 0.2278006,0.2278007 v 3.1788545 h 1.7913417 c 0.124255,0 0.2278,0.1035457 0.2278,0.2278006 0,0.1242549 -0.09319,0.2278007 -0.2278,0.2278007 z"
     inkscape:connector-curvature="0"
     style="fill:#010101;stroke-width:1" /><path
     id="XMLID_162_"
     class="st1"
     d="m 0.5565349,15.718244 c -0.1242549,0 -0.2278006,-0.103545 -0.2278006,-0.2278 V 12.04237 c 0,-0.124255 0.1035457,-0.2278 0.2278006,-0.2278 h 1.9466597 c 0.124255,0 0.227801,0.103545 0.227801,0.2278 0,0.124255 -0.103546,0.227801 -0.227801,0.227801 h -1.718859 v 3.220273 c 0,0.124255 -0.1035458,0.2278 -0.2278007,0.2278 z"
     inkscape:connector-curvature="0"
     style="fill:#010101;stroke-width:1" /><path
     id="XMLID_161_"
     class="st1"
     d="m 16.564708,4.825232 h -2.019142 c -0.124255,0 -0.227801,-0.1035458 -0.227801,-0.2278007 0,-0.1242549 0.103546,-0.2278006 0.227801,-0.2278006 h 1.791342 V 1.1907762 c 0,-0.1242549 0.103545,-0.2278007 0.2278,-0.2278007 0.124255,0 0.227801,0.1035458 0.227801,0.2278007 v 3.4066551 c 0,0.1242549 -0.103546,0.2278007 -0.227801,0.2278007 z"
     inkscape:connector-curvature="0"
     style="fill:#010101;stroke-width:1" /><path
     id="XMLID_158_"
     class="st1"
     d="m 16.481872,15.718244 c -0.124255,0 -0.227801,-0.103545 -0.227801,-0.2278 v -3.220273 h -1.718859 c -0.124255,0 -0.227801,-0.103546 -0.227801,-0.227801 0,-0.124255 0.103546,-0.2278 0.227801,-0.2278 h 1.94666 c 0.124255,0 0.2278,0.103545 0.2278,0.2278 v 3.448074 c 0,0.124255 -0.103545,0.2278 -0.2278,0.2278 z"
     inkscape:connector-curvature="0"
     style="fill:#010101;stroke-width:1" /><path
     id="XMLID_157_"
     class="st1"
     d="m 4.5326916,16.784766 c -0.124255,0 -0.227801,-0.103546 -0.227801,-0.227801 v -2.050206 c 0,-0.124255 0.103546,-0.227801 0.227801,-0.227801 0.124255,0 0.227801,0.103546 0.227801,0.227801 v 2.050206 c 0,0.134609 -0.103546,0.227801 -0.227801,0.227801 z"
     inkscape:connector-curvature="0"
     style="fill:#010101;stroke-width:1" /><path
     id="XMLID_156_"
     class="st1"
     d="m 7.2248816,16.784766 c -0.124255,0 -0.227801,-0.103546 -0.227801,-0.227801 v -2.050206 c 0,-0.124255 0.103546,-0.227801 0.227801,-0.227801 0.124254,0 0.2278,0.103546 0.2278,0.227801 v 2.050206 c 0,0.134609 -0.103546,0.227801 -0.2278,0.227801 z"
     inkscape:connector-curvature="0"
     style="fill:#010101;stroke-width:1" /><path
     id="XMLID_155_"
     class="st1"
     d="m 9.9170706,16.784766 c -0.124255,0 -0.227801,-0.103546 -0.227801,-0.227801 v -2.050206 c 0,-0.124255 0.103546,-0.227801 0.227801,-0.227801 0.1242554,0 0.2278014,0.103546 0.2278014,0.227801 v 2.050206 c 0,0.134609 -0.103546,0.227801 -0.2278014,0.227801 z"
     inkscape:connector-curvature="0"
     style="fill:#010101;stroke-width:1" /><path
     id="XMLID_154_"
     class="st1"
     d="m 12.609261,16.784766 c -0.124255,0 -0.227801,-0.103546 -0.227801,-0.227801 v -2.050206 c 0,-0.124255 0.103546,-0.227801 0.227801,-0.227801 0.124255,0 0.2278,0.103546 0.2278,0.227801 v 2.050206 c 0,0.134609 -0.09319,0.227801 -0.2278,0.227801 z"
     inkscape:connector-curvature="0"
     style="fill:#010101;stroke-width:1" /><path
     id="XMLID_153_"
     class="st1"
     d="m 4.5326916,2.5058072 c -0.124255,0 -0.227801,-0.1035458 -0.227801,-0.2278007 V 0.2278007 C 4.3048906,0.1035458 4.4084366,0 4.5326916,0 c 0.124255,0 0.227801,0.1035458 0.227801,0.2278007 v 2.0502058 c 0,0.1242549 -0.103546,0.2278007 -0.227801,0.2278007 z"
     inkscape:connector-curvature="0"
     style="fill:#010101;stroke-width:1" /><g
     transform="matrix(0.10354575,0,0,0.10354575,-6.1118114,-5.5811159)"
     id="XMLID_282_"
     style="stroke-width:9.65756702">
				<line
   id="XMLID_152_"
   class="st3"
   x1="128.8"
   y1="75.900002"
   x2="128.8"
   y2="56.099998"
   style="fill:#fff8d2;stroke-width:9.65756702" />
			</g><g
     transform="matrix(0.10354575,0,0,0.10354575,-6.1118114,-5.5811159)"
     id="XMLID_280_"
     style="stroke-width:9.65756702">
				<path
   id="XMLID_151_"
   class="st1"
   d="m 128.8,78.1 c -1.2,0 -2.2,-1 -2.2,-2.2 V 56.1 c 0,-1.2 1,-2.2 2.2,-2.2 1.2,0 2.2,1 2.2,2.2 v 19.8 c 0,1.2 -1,2.2 -2.2,2.2 z"
   inkscape:connector-curvature="0"
   style="fill:#010101;stroke-width:9.65756702" />
			</g><path
     id="XMLID_150_"
     class="st1"
     d="m 9.9170706,2.5058072 c -0.124255,0 -0.227801,-0.1035458 -0.227801,-0.2278007 V 0.2278007 C 9.6892696,0.1035458 9.7928156,0 9.9170706,0 10.041326,0 10.144872,0.1035458 10.144872,0.2278007 v 2.0502058 c 0,0.1242549 -0.103546,0.2278007 -0.2278014,0.2278007 z"
     inkscape:connector-curvature="0"
     style="fill:#010101;stroke-width:1" /><path
     id="XMLID_149_"
     class="st1"
     d="m 12.609261,2.5058072 c -0.124255,0 -0.227801,-0.1035458 -0.227801,-0.2278007 V 0.2278007 C 12.38146,0.1035458 12.485006,0 12.609261,0 c 0.124255,0 0.2278,0.1035458 0.2278,0.2278007 v 2.0502058 c 0,0.1242549 -0.09319,0.2278007 -0.2278,0.2278007 z"
     inkscape:connector-curvature="0"
     style="fill:#010101;stroke-width:1" /><path
     id="XMLID_148_"
     class="st1"
     d="m 10.880047,8.7081975 c -0.124255,0 -0.227801,-0.103546 -0.227801,-0.227801 V 6.2541635 H 8.4156576 c -0.124255,0 -0.227801,-0.103546 -0.227801,-0.227801 0,-0.124255 0.103546,-0.2278 0.227801,-0.2278 h 2.4643894 c 0.124254,0 0.2278,0.103545 0.2278,0.2278 v 2.454034 c 0,0.124255 -0.09319,0.227801 -0.2278,0.227801 z"
     inkscape:connector-curvature="0"
     style="fill:#010101;stroke-width:1" /><g
     transform="translate(-9.2582194,-4.3102758)"
     id="g1221"><path
       style="fill:#010101;stroke-width:1"
       inkscape:connector-curvature="0"
       d="m 23.598394,11.304792 c 0,-0.124255 0.103546,-0.227801 0.227801,-0.227801 h 2.050206 c 0.124255,0 0.2278,0.103546 0.2278,0.227801 0,0.124255 -0.103545,0.227801 -0.2278,0.227801 h -2.050206 c -0.124255,0 -0.227801,-0.103546 -0.227801,-0.227801 z"
       class="st1"
       id="XMLID_150_-6" /><path
       style="fill:#010101;stroke-width:1"
       inkscape:connector-curvature="0"
       d="m 23.598394,13.996982 c 0,-0.124255 0.103546,-0.227801 0.227801,-0.227801 h 2.050206 c 0.124255,0 0.2278,0.103546 0.2278,0.227801 0,0.124255 -0.103545,0.2278 -0.2278,0.2278 h -2.050206 c -0.124255,0 -0.227801,-0.09319 -0.227801,-0.2278 z"
       class="st1"
       id="XMLID_149_-7" /></g><g
     transform="translate(-9.2582194,-4.1976568)"
     id="g1217"><path
       style="fill:#010101;stroke-width:1"
       inkscape:connector-curvature="0"
       d="m 9.2582194,11.192173 c 0,-0.124255 0.103546,-0.227801 0.227801,-0.227801 h 2.0502056 c 0.124255,0 0.2278,0.103546 0.2278,0.227801 0,0.124255 -0.103545,0.227801 -0.2278,0.227801 H 9.4860204 c -0.124255,0 -0.227801,-0.103546 -0.227801,-0.227801 z"
       class="st1"
       id="XMLID_150_-6-5" /><path
       style="fill:#010101;stroke-width:1"
       inkscape:connector-curvature="0"
       d="m 9.2582194,13.884363 c 0,-0.124255 0.103546,-0.227801 0.227801,-0.227801 h 2.0502056 c 0.124255,0 0.2278,0.103546 0.2278,0.227801 0,0.124255 -0.103545,0.2278 -0.2278,0.2278 H 9.4860204 c -0.124255,0 -0.227801,-0.09319 -0.227801,-0.2278 z"
       class="st1"
       id="XMLID_149_-7-3" /></g></g></svg>